{"title":"The.Grand.Budapest.Hotel.2014.HDRip.XviD.AC3-EVO","uid":10287158,"size":1498469272,"categoryP":"video","categoryS":"movies","magnet":"?xt=urn:btih:165cc5f74c056dd6b469f6d2c76d933df4de96b4&amp;dn=The.Grand.Budapest.Hotel.2014.HDRip.XviD.AC3-EVO&amp;tr=udp%3A%2F%2Ftracker.openbittorrent.com%3A80&amp;tr=udp%3A%2F%2Fopen.demonii.com%3A1337&amp;tr=udp%3A%2F%2Ftracker.coppersurfer.tk%3A6969&amp;tr=udp%3A%2F%2Fexodus.desync.com%3A6969","seeders":6,"leechers":4,"uploader":"xxxlavalxxx","files":-1,"time":1401803247,"description":" &lt;a href=&quot;\nhttp://www.imdb.com/title/tt2278388/&quot; rel=&quot;nofollow&quot; target=&quot;_NEW&quot;&gt;\nhttp://www.imdb.com/title/tt2278388/&lt;/a&gt;\n\n\nThe adventures of Gustave H, a legendary concierge at a famous European hotel between the wars, and Zero Moustafa, the lobby boy who becomes his most trusted friend.\n\nDirector: Wes Anderson\nWriters: Stefan Zweig (inspired by the works of), Wes Anderson (story)\nStars: Ralph Fiennes, F. Murray Abraham, Mathieu Amalric\nGenres: Comedy\nCountry: USA | Germany\nLanguage: English | French\n\n\n\nFormat                                   : AVI\nFormat/Info                              : Audio Video Interleave\nFile size                                : 1.37 GiB\nDuration                                 : 1h 39mn\nOverall bit rate                         : 1 967 Kbps\nWriting library                          : VirtualDub build 32593/release\n\nVideo\nID                                       : 0\nFormat                                   : MPEG-4 Visual\nFormat profile                           : Advanced Simple@L5\nFormat settings, BVOP                    : 2\nFormat settings, QPel                    : No\nFormat settings, GMC                     : No warppoints\nFormat settings, Matrix                  : Default (H.263)\nMuxing mode                              : Packed bitstream\nCodec ID                                 : XVID\nCodec ID/Hint                            : XviD\nDuration                                 : 1h 39mn\nBit rate                                 : 1 574 Kbps\nWidth                                    : 720 pixels\nHeight                                   : 384 pixels\nDisplay aspect ratio                     : 1.875\nFrame rate                               : 23.976 fps\nColor space                              : YUV\nChroma subsampling                       : 4:2:0\nBit depth                                : 8 bits\nScan type                                : Progressive\nCompression mode                         : Lossy\nBits/(Pixel*Frame)                       : 0.237\nStream size                              : 1.10 GiB (80%)\nWriting library                          : XviD 64\n\nAudio\nID                                       : 1\nFormat                                   : AC-3\nFormat/Info                              : Audio Coding 3\nMode extension                           : CM (complete main)\nCodec ID                                 : 2000\nDuration                                 : 1h 39mn\nBit rate mode                            : Constant\nBit rate                                 : 384 Kbps\nChannel(s)                               : 6 channels\nChannel positions                        : Front: L C R, Side: L R, LFE\nSampling rate                            : 48.0 KHz\nBit depth                                : 16 bits\nCompression mode                         : Lossy\nStream size                              : 275 MiB (20%)\nAlignment                                : Aligned on interleaves\nInterleave, duration                     : 42 ms (1.00 video frame)\nInterleave, preload duration             : 512 ms\n\n\ninfo\n &lt;a href=&quot;\nhttp://i.imgur.com/vS4OH23.png&quot; rel=&quot;nofollow&quot; target=&quot;_NEW&quot;&gt;\nhttp://i.imgur.com/vS4OH23.png&lt;/a&gt;\n\n\nscreens\n &lt;a href=&quot;\nhttp://i.imgur.com/zLithLC.jpg&quot; rel=&quot;nofollow&quot; target=&quot;_NEW&quot;&gt;\nhttp://i.imgur.com/zLithLC.jpg&lt;/a&gt; &lt;a href=&quot;\nhttp://i.imgur.com/BLs7KtO.jpg&quot; rel=&quot;nofollow&quot; target=&quot;_NEW&quot;&gt;\nhttp://i.imgur.com/BLs7KtO.jpg&lt;/a&gt; &lt;a href=&quot;\nhttp://i.imgur.com/htaBzSX.jpg&quot; rel=&quot;nofollow&quot; target=&quot;_NEW&quot;&gt;\nhttp://i.imgur.com/htaBzSX.jpg&lt;/a&gt; &lt;a href=&quot;\nhttp://i.imgur.com/RWGuZVp.jpg&quot; rel=&quot;nofollow&quot; target=&quot;_NEW&quot;&gt;\nhttp://i.imgur.com/RWGuZVp.jpg&lt;/a&gt;\n","torrent":{"xt":"urn:btih:165cc5f74c056dd6b469f6d2c76d933df4de96b4","amp;dn":"The.Grand.Budapest.Hotel.2014.HDRip.XviD.AC3-EVO","amp;tr":["udp%3A%2F%2Ftracker.openbittorrent.com%3A80","udp%3A%2F%2Fopen.demonii.com%3A1337","udp%3A%2F%2Ftracker.coppersurfer.tk%3A6969","udp%3A%2F%2Fexodus.desync.com%3A6969"],"infoHash":"165cc5f74c056dd6b469f6d2c76d933df4de96b4","infoHashBuffer":{"type":"Buffer","data":[22,92,197,247,76,5,109,214,180,105,246,210,199,109,147,61,244,222,150,180]},"announce":[],"urlList":[]}}